<?xml version="1.0" encoding="utf-8"?>
<!-- Generator: Adobe Illustrator 16.0.0, SVG Export Plug-In . SVG Version: 6.00 Build 0)  -->
<!DOCTYPE svg PUBLIC "-//W3C//DTD SVG 1.1//EN" "http://www.w3.org/Graphics/SVG/1.1/DTD/svg11.dtd">
<svg version="1.1" xmlns="http://www.w3.org/2000/svg" xmlns:xlink="http://www.w3.org/1999/xlink" x="0px" y="0px"
	 width="3240px" height="1976px" viewBox="0 304.375 3240 1976" enable-background="new 0 304.375 3240 1976" xml:space="preserve">
<g>
	<g>
		<path id="SVGID_1_" d="M2382.309,1639.23c0.515,0.515,2.057,1.028,4.112,1.028l23.653,2.058v22.109H2306.72v-22.109l22.11-2.058
			c2.057,0,3.086-0.515,4.113-1.028c0.515-0.515,1.029-2.057,1.029-4.113v-142.436c0-2.057-0.516-3.599-1.029-4.113
			s-2.057-1.027-4.113-1.027l-22.11-2.057v-22.111h103.354v22.111l-23.653,2.057c-2.057,0-3.599,0.514-4.113,1.543
			c-0.515,0.514-0.515,2.057-0.515,4.113v141.405C2381.279,1637.175,2381.793,1638.717,2382.309,1639.23L2382.309,1639.23z
			 M2639.41,1487.541c-2.059,0-3.601,0.515-4.114,1.543c-0.514,0.514-0.514,2.057-0.514,4.113v171.744h-51.421l-98.213-145.006
			v114.668c0,2.057,0,3.6,0.515,4.112c0.514,0.516,2.057,1.028,4.113,1.028l20.054,2.058v22.11h-84.844v-22.11l19.024-2.058
			c2.059,0,3.086-0.514,4.114-1.542c0.515-0.515,1.028-2.058,1.028-4.114V1491.14c0-2.057-0.515-3.6-1.028-4.113
			c-0.515-0.515-2.057-1.028-4.114-1.028l-19.024-2.057v-21.598h76.617l96.67,145.006v-115.695c0-2.058-0.516-3.6-1.028-4.113
			c-0.515-0.516-2.059-1.028-4.114-1.028l-19.025-2.057v-22.111h84.845v22.111L2639.41,1487.541L2639.41,1487.541z
			 M2854.861,1636.66c-19.025,18.512-48.335,27.767-86.9,27.767h-94.613v-22.109l19.539-2.058c2.058,0,3.086-0.515,4.113-1.543
			c0.516-0.514,1.029-2.057,1.029-4.113v-142.435c0-2.057-0.515-3.6-1.029-4.114c-0.514-0.514-2.057-1.027-4.113-1.542
			l-19.539-2.057v-22.111h99.756c37.537,0,65.304,8.229,83.302,25.196c17.997,16.969,27.252,41.137,27.252,71.988
			C2883.656,1592.953,2873.887,1618.148,2854.861,1636.66L2854.861,1636.66z M2819.381,1509.651
			c-11.313-10.798-29.31-15.939-53.99-15.939h-19.541v140.892h17.483c48.335,0,72.503-23.652,72.503-70.959
			C2835.836,1538.447,2830.18,1520.45,2819.381,1509.651L2819.381,1509.651z M2965.93,1639.23c0.514,0.515,2.057,1.028,4.113,1.028
			l23.653,2.058v22.109h-103.354v-22.109l22.11-2.058c2.057,0,3.085-0.515,4.113-1.028c0.515-0.515,1.028-2.057,1.028-4.113
			v-142.436c0-2.057-0.515-3.599-1.028-4.113c-0.515-0.515-2.058-1.027-4.113-1.027l-22.11-2.057v-22.111h103.354v22.111
			l-23.653,2.057c-2.057,0-3.6,0.514-4.113,1.543c-0.515,0.514-0.515,2.057-0.515,4.113v141.405
			C2964.9,1637.175,2965.415,1638.717,2965.93,1639.23L2965.93,1639.23z M3138.702,1664.428v-22.11l25.196-2.571l-11.313-28.795
			h-76.617l-10.798,28.795l24.168,2.571v22.11h-86.387v-22.11l13.369-3.085c4.113-1.028,6.685-2.571,7.714-5.144l67.875-170.716
			h55.02l67.36,171.23c1.028,2.057,3.085,3.6,7.198,4.628l14.397,3.085v22.11L3138.702,1664.428L3138.702,1664.428z
			 M3116.077,1506.053h-2.059l-28.28,75.588h57.592L3116.077,1506.053L3116.077,1506.053z"/>
	</g>
</g>
<g>
	<g id="XMLID_2_">
		<g>
			<path d="M3238.457,1078.234l-9.77,89.985l-53.479-2.058l-5.656-48.335c-12.341,2.057-24.167,5.656-34.451,12.341v227.793
				l33.938,7.198l-2.57,34.452h-142.947l1.541-34.452l30.338-7.198V1119.37l-35.479-3.601v-35.994l97.186-13.368l6.685,23.139v7.199
				c25.196-19.025,60.162-31.367,101.298-31.367L3238.457,1078.234z"/>
			<path d="M3003.98,1364.132l-4.113,34.966h-92.557l-8.229-28.281c-21.597,21.084-43.193,33.425-76.616,33.425
				c-50.905,0-96.671-25.712-96.671-96.156V1110.63l-37.535-3.599v-31.367l107.981-12.341l8.228,28.28v206.711
				c0,35.994,14.397,55.021,43.707,55.021c8.229,0,19.025-1.028,28.281-5.143c5.656-5.656,10.284-11.826,14.912-18.512v-219.052
				l-38.564-3.599v-31.367l109.012-12.341l8.741,28.281v266.357L3003.98,1364.132z"/>
			<path d="M2683.117,1231.468l-8.229,21.082l-163.003,1.543c0,57.076,24.683,101.298,74.046,101.298
				c25.196,0,45.764-5.655,69.417-16.455l13.37,31.367c-24.168,19.539-59.646,34.451-104.384,34.451
				c-86.387,0-136.264-75.073-136.264-171.229c0-81.76,35.993-171.744,135.235-171.744
				C2650.208,1061.78,2683.117,1141.996,2683.117,1231.468z M2510.857,1216.041l99.757-4.628
				c-2.058-39.594-10.284-102.841-49.364-102.841c-9.255,0-15.939,1.543-27.768,7.713
				C2517.029,1143.538,2510.345,1192.902,2510.857,1216.041z"/>
			<path d="M2417.273,1364.132l-2.058,34.966h-111.067V1171.82c0-32.909-11.826-50.906-41.137-50.906
				c-9.771,0-16.969,2.058-25.195,4.628c-5.144,4.114-9.257,9.771-13.369,15.427v217.508l33.938,6.172l-2.57,34.966h-143.463
				l1.541-34.966l32.396-6.172v-239.618l-37.537-3.601v-35.994l94.1-13.369l7.198,20.055v13.369
				c22.625-23.653,49.878-37.536,84.845-37.536c50.905,0,88.957,30.852,88.957,92.042v203.11L2417.273,1364.132z"/>
			<path d="M2103.095,1231.468l-8.228,21.082l-162.488,1.543c0,57.076,24.682,101.298,74.045,101.298
				c25.196,0,45.766-5.655,69.418-16.455l13.369,31.367c-24.167,19.539-59.646,34.451-104.383,34.451
				c-86.387,0-136.264-75.073-136.264-171.229c0-81.76,35.993-171.744,135.748-171.744
				C2070.7,1061.78,2103.095,1141.996,2103.095,1231.468z M1930.836,1216.041l99.756-4.628
				c-2.057-39.594-10.283-102.841-49.363-102.841c-9.256,0-15.939,1.543-27.768,7.713
				C1937.521,1143.538,1930.836,1192.902,1930.836,1216.041z"/>
			<path d="M1839.822,1078.234l-9.771,89.985l-53.478-2.058l-5.656-48.335c-12.341,2.057-24.167,5.656-34.452,12.341v227.793
				l33.938,7.198l-2.57,34.452h-143.463l1.542-34.452l30.339-7.198V1119.37l-35.995-3.601v-35.994l97.185-13.368l6.686,23.139v7.199
				c25.196-19.025,60.162-31.367,101.298-31.367L1839.822,1078.234z"/>
			<path d="M1597.633,1225.297c0,56.563-1.029,179.457-121.353,179.457c-21.083,0-40.108-5.142-53.479-12.341v128.551l33.938,6.171
				l-2.57,33.938h-143.463l1.542-33.938l31.881-6.171v-405.191l-37.537-5.144v-34.451l97.186-13.369l8.228,28.281v10.798
				c9.771-11.825,32.909-40.106,82.272-40.106C1567.809,1061.78,1597.633,1125.027,1597.633,1225.297z M1505.59,1348.191
				c3.085-8.741,14.912-30.338,14.912-107.982c0-80.73-7.199-125.98-51.936-125.98c-10.283,0-19.539,1.543-29.823,5.144
				c-5.656,6.17-10.798,12.341-15.427,19.539v209.796c10.799,6.17,24.168,8.741,41.65,8.741
				C1480.395,1356.934,1493.249,1353.848,1505.59,1348.191z"/>
			<path d="M1302.993,1231.468l-8.741,21.082l-161.975,1.543c0,57.076,24.682,101.298,74.045,101.298
				c25.195,0,45.765-5.655,69.418-16.455l13.369,31.367c-24.167,19.539-59.647,34.451-104.383,34.451
				c-86.388,0-136.266-75.073-136.266-171.229c0-81.76,35.995-171.744,135.75-171.744
				C1270.084,1061.78,1302.993,1141.996,1302.993,1231.468z M1130.734,1216.041l99.756-4.628
				c-2.057-39.594-10.284-102.841-49.363-102.841c-9.256,0-15.939,1.543-27.768,7.713
				C1136.905,1143.538,1130.221,1192.902,1130.734,1216.041z"/>
			<path d="M1039.207,1078.234l-9.771,89.985l-53.478-2.058l-5.656-48.335c-12.34,2.057-24.167,5.656-34.45,12.341v227.793
				l33.938,7.198l-2.571,34.452H823.755l1.543-34.452l30.338-7.198V1119.37l-35.993-3.601v-35.994l97.185-13.368l6.17,23.139v7.199
				c25.196-19.025,60.162-31.367,101.299-31.367L1039.207,1078.234z"/>
			<path d="M797.018,1356.934l3.599,35.994c-12.854,5.656-35.994,11.313-66.332,11.313c-39.594,0-76.616-17.997-76.616-76.104
				v-209.28l-37.537-6.171l1.543-41.65l42.68-2.058l18.512-63.761l54.506-2.571v67.875h59.133l-4.113,41.65l-53.99,6.171v209.281
				c0,17.482,9.255,28.795,27.253,28.795h31.366v0.515H797.018z"/>
			<path d="M623.215,1364.132l-2.057,34.966H510.091V1171.82c0-32.909-11.827-50.906-41.137-50.906
				c-9.771,0-16.969,2.058-24.683,4.628c-5.143,4.114-9.256,9.771-13.368,15.427v217.508l33.938,6.172l-2.571,34.966H318.292
				l1.542-34.966l31.881-6.172v-239.618l-37.537-3.601v-35.994l94.101-13.369l7.198,20.055v13.369
				c22.625-23.653,49.877-37.536,84.844-37.536c50.906,0,88.958,30.852,88.958,92.042v203.11L623.215,1364.132z"/>
			<polygon points="287.44,1279.803 292.068,1399.612 0.514,1399.612 2.571,1356.934 43.193,1350.248 43.193,971.794 
				-2.571,965.624 0,925.002 285.897,925.002 279.213,1039.669 222.136,1038.127 218.537,966.138 130.094,966.138 130.094,1136.34 
				168.659,1136.34 177.4,1097.26 217.508,1098.288 217.508,1216.041 177.915,1216.041 168.659,1175.934 130.094,1175.934 
				130.094,1356.419 219.051,1356.419 227.278,1278.26 			"/>
		</g>
	</g>
</g>
</svg>
